<?xml version="1.0" standalone="no"?>
<!DOCTYPE svg PUBLIC "-//W3C//DTD SVG 20010904//EN"
 "http://www.w3.org/TR/2001/REC-SVG-20010904/DTD/svg10.dtd">
<svg version="1.0" xmlns="http://www.w3.org/2000/svg"
 width="1024.000000pt" height="1024.000000pt" viewBox="0 0 1024.000000 1024.000000"
 preserveAspectRatio="xMidYMid meet">
<metadata>
Created by potrace 1.14, written by Peter Selinger 2001-2017
</metadata>
<g transform="translate(0.000000,1024.000000) scale(0.100000,-0.100000)"
fill="#000000" stroke="none">
<path d="M0 5120 l0 -5120 5120 0 5120 0 0 5120 0 5120 -5120 0 -5120 0 0
-5120z m5538 3641 c105 -54 146 -187 87 -287 -77 -130 -274 -131 -349 -1 -35
61 -40 98 -22 161 35 120 175 183 284 127z m-1213 -455 c62 -26 88 -121 48
-175 -11 -14 -37 -32 -58 -39 -135 -45 -213 156 -82 213 41 18 50 18 92 1z
m1988 -74 c151 -67 223 -255 155 -402 -33 -74 -80 -125 -142 -158 -42 -22 -65
-26 -131 -26 -68 -1 -89 3 -137 27 -151 74 -214 260 -141 414 21 45 88 115
133 138 74 38 185 41 263 7z m-1467 -297 c225 -66 249 -387 38 -491 -106 -52
-224 -32 -306 51 -58 58 -73 98 -73 190 1 95 21 143 87 199 71 61 160 79 254
51z m1305 -920 c82 -58 106 -159 59 -243 -41 -72 -75 -86 -217 -91 l-123 -3 0
-558 0 -559 173 -260 c94 -143 212 -322 262 -398 49 -76 149 -228 220 -338 72
-110 158 -242 191 -293 32 -50 144 -221 247 -380 291 -443 338 -521 378 -612
107 -249 103 -552 -11 -815 -38 -89 -130 -213 -224 -302 -102 -97 -204 -161
-327 -204 -174 -62 -103 -60 -1719 -60 -1626 0 -1544 -3 -1724 62 -134 48
-229 110 -337 218 -209 210 -299 422 -299 706 0 188 25 305 97 448 38 77 60
111 303 482 97 149 343 527 545 840 203 314 419 647 482 741 l113 170 0 557 0
557 -103 0 c-56 0 -118 4 -136 10 -39 11 -86 52 -108 94 -32 62 -12 165 42
216 54 51 24 49 1137 47 l1036 -2 43 -30z"/>
<path d="M4590 6095 l0 -591 -132 -207 c-73 -114 -185 -288 -247 -385 -215
-332 -308 -477 -321 -502 -12 -23 -12 -24 3 -12 9 8 33 12 54 11 21 -2 44 0
51 5 12 7 82 -2 82 -11 0 -3 -8 -17 -18 -31 -25 -37 -87 -149 -77 -140 4 4 29
42 54 85 56 95 81 111 140 87 21 -8 42 -22 45 -30 4 -10 12 -11 28 -5 59 22
317 -84 464 -190 119 -87 207 -186 423 -480 24 -34 135 -114 187 -136 135 -58
265 -48 440 32 257 118 524 187 719 185 50 0 99 1 110 3 11 2 23 -1 27 -7 5
-7 8 -7 8 -1 0 9 -289 460 -613 955 -53 80 -186 286 -296 458 l-201 312 0 590
0 590 -465 2 -465 3 0 -590z m215 -77 l25 -30 0 -320 0 -320 -29 -29 c-42 -41
-92 -40 -132 2 l-29 31 0 318 c0 305 1 318 21 344 21 27 71 46 102 38 9 -2 28
-18 42 -34z m-389 -1262 c32 -32 40 -57 34 -110 -3 -34 -30 -64 -72 -81 -53
-21 -90 -12 -128 31 -68 78 -13 193 94 194 30 0 45 -7 72 -34z m1196 -67 c29
-5 67 -15 83 -22 49 -18 135 -79 128 -90 -3 -5 -1 -7 5 -3 16 9 76 -70 114
-150 32 -66 33 -74 33 -189 0 -113 -2 -124 -31 -185 -86 -182 -275 -286 -471
-259 -305 42 -479 382 -341 667 59 125 194 224 304 226 29 1 50 4 47 9 -6 10
68 9 129 -4z"/>
<path d="M3800 4264 c-12 -19 -21 -37 -18 -39 2 -2 14 14 26 36 28 49 22 52
-8 3z"/>
<path d="M3942 4178 c-36 -54 -44 -68 -39 -68 2 0 21 25 41 55 20 30 34 55 32
55 -3 0 -18 -19 -34 -42z"/>
<path d="M3736 4168 c-9 -18 -11 -25 -3 -16 8 10 16 16 18 13 3 -2 5 5 6 15 2
27 0 25 -21 -12z"/>
<path d="M3866 4060 c-14 -22 -26 -43 -26 -47 0 -4 6 1 13 12 33 48 49 75 44
75 -2 0 -16 -18 -31 -40z"/>
<path d="M3656 4043 c-6 -14 -5 -15 5 -6 7 7 10 15 7 18 -3 3 -9 -2 -12 -12z"/>
<path d="M3629 4003 c-13 -16 -12 -17 4 -4 16 13 21 21 13 21 -2 0 -10 -8 -17
-17z"/>
<path d="M3801 3962 c-32 -49 -66 -108 -58 -101 12 9 88 131 85 134 -2 2 -14
-13 -27 -33z"/>
<path d="M3594 3948 c-4 -7 -15 -24 -23 -38 -10 -15 -11 -21 -3 -16 13 7 46
66 38 66 -3 0 -8 -6 -12 -12z"/>
<path d="M4513 3935 c-71 -32 -137 -102 -162 -171 -25 -65 -27 -169 -6 -228 8
-22 11 -44 8 -49 -3 -6 -1 -7 4 -4 6 4 18 -4 27 -18 9 -13 28 -35 43 -50 15
-14 24 -25 19 -25 -5 0 -3 -6 4 -14 6 -8 19 -12 27 -9 12 5 14 3 8 -7 -5 -8
-4 -11 2 -7 5 3 31 0 58 -8 91 -28 197 -13 267 36 18 13 34 23 36 21 1 -1 2 0
1 4 0 3 14 21 32 42 70 80 91 200 54 311 -54 162 -264 250 -422 176z"/>
<path d="M3723 3838 c-21 -27 -64 -100 -56 -95 10 6 75 107 69 107 -2 0 -8 -6
-13 -12z"/>
<path d="M3416 3673 c-20 -32 -27 -46 -14 -31 26 30 62 88 55 88 -2 0 -21 -26
-41 -57z"/>
<path d="M3572 3605 c-34 -52 -59 -95 -56 -95 2 0 28 37 57 83 67 103 69 107
64 107 -3 0 -32 -43 -65 -95z"/>
<path d="M3340 3560 c-6 -11 -8 -20 -6 -20 3 0 10 9 16 20 6 11 8 20 6 20 -3
0 -10 -9 -16 -20z"/>
<path d="M3313 3518 c-15 -20 -25 -38 -20 -38 3 0 12 11 21 25 17 26 16 35 -1
13z"/>
<path d="M3462 3438 c-33 -49 -55 -88 -48 -88 2 0 22 29 45 65 45 73 48 88 3
23z"/>
<path d="M6081 3369 c-101 -20 -191 -92 -233 -187 -30 -66 -35 -157 -13 -223
34 -101 80 -155 172 -200 70 -35 186 -34 264 3 32 14 67 36 78 47 12 12 27 19
33 15 7 -4 8 -3 4 5 -5 7 0 19 11 29 34 30 64 119 65 187 1 115 -24 176 -95
242 -57 53 -88 69 -162 82 -65 12 -63 12 -124 0z"/>
<path d="M3390 3320 c-6 -11 -8 -20 -6 -20 3 0 10 9 16 20 6 11 8 20 6 20 -3
0 -10 -9 -16 -20z"/>
<path d="M3170 3300 c-6 -11 -8 -20 -6 -20 3 0 10 9 16 20 6 11 8 20 6 20 -3
0 -10 -9 -16 -20z"/>
<path d="M3359 3273 c-13 -16 -12 -17 4 -4 9 7 17 15 17 17 0 8 -8 3 -21 -13z"/>
<path d="M3136 3243 c-6 -14 -5 -15 5 -6 7 7 10 15 7 18 -3 3 -9 -2 -12 -12z"/>
<path d="M3499 3133 c-13 -16 -12 -17 4 -4 9 7 17 15 17 17 0 8 -8 3 -21 -13z"/>
<path d="M5200 3100 c-152 -29 -242 -183 -195 -334 10 -30 28 -65 41 -77 13
-12 21 -26 17 -32 -3 -6 -1 -7 5 -3 7 4 12 3 12 -2 0 -5 11 -15 25 -22 13 -7
23 -16 21 -19 -2 -3 6 -7 17 -8 12 -1 49 -5 82 -9 44 -4 72 -1 105 11 25 9 53
17 62 18 9 1 16 4 15 7 -3 8 47 55 56 52 5 -1 6 1 3 6 -3 5 4 26 14 48 94 189
-72 405 -280 364z"/>
<path d="M3065 3079 c-4 -6 -5 -12 -2 -15 2 -3 7 2 10 11 7 17 1 20 -8 4z"/>
<path d="M3051 3024 c0 -11 3 -14 6 -6 3 7 2 16 -1 19 -3 4 -6 -2 -5 -13z"/>
<path d="M4034 3001 c-78 -35 -123 -109 -124 -199 0 -59 16 -96 68 -160 27
-32 39 -41 55 -36 11 3 17 2 14 -3 -10 -16 116 -7 149 10 69 36 123 119 124
189 0 53 -32 132 -66 162 -31 27 -110 56 -153 56 -14 0 -44 -9 -67 -19z"/>
<path d="M3042 2950 c0 -19 2 -27 5 -17 2 9 2 25 0 35 -3 9 -5 1 -5 -18z"/>
<path d="M3219 2943 c-13 -16 -12 -17 4 -4 16 13 21 21 13 21 -2 0 -10 -8 -17
-17z"/>
<path d="M7061 2754 c0 -11 3 -14 6 -6 3 7 2 16 -1 19 -3 4 -6 -2 -5 -13z"/>
<path d="M7051 2723 c-1 -6 -4 -20 -7 -30 -5 -17 -5 -17 6 0 6 10 9 23 6 30
-3 9 -5 9 -5 0z"/>
<path d="M3220 2705 c0 -5 5 -17 10 -25 5 -8 10 -10 10 -5 0 6 -5 17 -10 25
-5 8 -10 11 -10 5z"/>
<path d="M3100 2615 c0 -5 5 -17 10 -25 5 -8 10 -10 10 -5 0 6 -5 17 -10 25
-5 8 -10 11 -10 5z"/>
<path d="M6970 2540 c-6 -11 -8 -20 -6 -20 3 0 10 9 16 20 6 11 8 20 6 20 -3
0 -10 -9 -16 -20z"/>
<path d="M3140 2541 c0 -6 4 -13 10 -16 6 -3 7 1 4 9 -7 18 -14 21 -14 7z"/>
<path d="M3711 2504 c0 -11 3 -14 6 -6 3 7 2 16 -1 19 -3 4 -6 -2 -5 -13z"/>
<path d="M3180 2486 c0 -2 8 -10 18 -17 15 -13 16 -12 3 4 -13 16 -21 21 -21
13z"/>
<path d="M3440 2476 c0 -3 14 -12 30 -21 17 -9 30 -13 30 -11 0 3 -13 12 -30
21 -16 9 -30 13 -30 11z"/>
<path d="M6899 2443 c-13 -16 -12 -17 4 -4 16 13 21 21 13 21 -2 0 -10 -8 -17
-17z"/>
</g>
</svg>
